<svg width="703" height="186" viewBox="0 0 703 186" fill="none" xmlns="http://www.w3.org/2000/svg">
<path d="M60.9 97.75H81.75C81.45 92.75 80.25 88.45 78.15 84.85C76.05 81.15 73.3 78.1 69.9 75.7C66.6 73.2 62.8 71.35 58.5 70.15C54.3 68.95 49.9 68.35 45.3 68.35C39 68.35 33.4 69.4 28.5 71.5C23.6 73.6 19.45 76.55 16.05 80.35C12.65 84.05 10.05 88.5 8.25 93.7C6.55 98.8 5.7 104.35 5.7 110.35C5.7 116.15 6.65 121.5 8.55 126.4C10.45 131.2 13.1 135.35 16.5 138.85C19.9 142.35 24 145.1 28.8 147.1C33.7 149 39.05 149.95 44.85 149.95C55.15 149.95 63.6 147.25 70.2 141.85C76.8 136.45 80.8 128.6 82.2 118.3H61.65C60.95 123.1 59.2 126.95 56.4 129.85C53.7 132.65 49.8 134.05 44.7 134.05C41.4 134.05 38.6 133.3 36.3 131.8C34 130.3 32.15 128.4 30.75 126.1C29.45 123.7 28.5 121.05 27.9 118.15C27.3 115.25 27 112.4 27 109.6C27 106.7 27.3 103.8 27.9 100.9C28.5 97.9 29.5 95.2 30.9 92.8C32.4 90.3 34.3 88.3 36.6 86.8C38.9 85.2 41.75 84.4 45.15 84.4C54.25 84.4 59.5 88.85 60.9 97.75ZM93.3328 94.3C93.6328 89.3 94.8828 85.15 97.0828 81.85C99.2828 78.55 102.083 75.9 105.483 73.9C108.883 71.9 112.683 70.5 116.883 69.7C121.183 68.8 125.483 68.35 129.783 68.35C133.683 68.35 137.633 68.65 141.633 69.25C145.633 69.75 149.283 70.8 152.583 72.4C155.883 74 158.583 76.25 160.683 79.15C162.783 81.95 163.833 85.7 163.833 90.4V130.75C163.833 134.25 164.033 137.6 164.433 140.8C164.833 144 165.533 146.4 166.533 148H144.933C144.533 146.8 144.183 145.6 143.883 144.4C143.683 143.1 143.533 141.8 143.433 140.5C140.033 144 136.033 146.45 131.433 147.85C126.833 149.25 122.133 149.95 117.333 149.95C113.633 149.95 110.183 149.5 106.983 148.6C103.783 147.7 100.983 146.3 98.5828 144.4C96.1828 142.5 94.2828 140.1 92.8828 137.2C91.5828 134.3 90.9328 130.85 90.9328 126.85C90.9328 122.45 91.6828 118.85 93.1828 116.05C94.7828 113.15 96.7828 110.85 99.1828 109.15C101.683 107.45 104.483 106.2 107.583 105.4C110.783 104.5 113.983 103.8 117.183 103.3C120.383 102.8 123.533 102.4 126.633 102.1C129.733 101.8 132.483 101.35 134.883 100.75C137.283 100.15 139.183 99.3 140.583 98.2C141.983 97 142.633 95.3 142.533 93.1C142.533 90.8 142.133 89 141.333 87.7C140.633 86.3 139.633 85.25 138.333 84.55C137.133 83.75 135.683 83.25 133.983 83.05C132.383 82.75 130.633 82.6 128.733 82.6C124.533 82.6 121.233 83.5 118.833 85.3C116.433 87.1 115.033 90.1 114.633 94.3H93.3328ZM142.533 110.05C141.633 110.85 140.483 111.5 139.083 112C137.783 112.4 136.333 112.75 134.733 113.05C133.233 113.35 131.633 113.6 129.933 113.8C128.233 114 126.533 114.25 124.833 114.55C123.233 114.85 121.633 115.25 120.033 115.75C118.533 116.25 117.183 116.95 115.983 117.85C114.883 118.65 113.983 119.7 113.283 121C112.583 122.3 112.233 123.95 112.233 125.95C112.233 127.85 112.583 129.45 113.283 130.75C113.983 132.05 114.933 133.1 116.133 133.9C117.333 134.6 118.733 135.1 120.333 135.4C121.933 135.7 123.583 135.85 125.283 135.85C129.483 135.85 132.733 135.15 135.033 133.75C137.333 132.35 139.033 130.7 140.133 128.8C141.233 126.8 141.883 124.8 142.083 122.8C142.383 120.8 142.533 119.2 142.533 118V110.05ZM219.516 134.05C216.116 134.05 213.216 133.35 210.816 131.95C208.416 130.55 206.466 128.75 204.966 126.55C203.566 124.25 202.516 121.6 201.816 118.6C201.216 115.6 200.916 112.55 200.916 109.45C200.916 106.25 201.216 103.15 201.816 100.15C202.416 97.15 203.416 94.5 204.816 92.2C206.316 89.9 208.216 88.05 210.516 86.65C212.916 85.15 215.866 84.4 219.366 84.4C222.766 84.4 225.616 85.15 227.916 86.65C230.316 88.05 232.266 89.95 233.766 92.35C235.266 94.65 236.316 97.3 236.916 100.3C237.616 103.3 237.966 106.35 237.966 109.45C237.966 112.55 237.666 115.6 237.066 118.6C236.466 121.6 235.416 124.25 233.916 126.55C232.516 128.75 230.616 130.55 228.216 131.95C225.916 133.35 223.016 134.05 219.516 134.05ZM180.366 70.45V175.15H201.666V138.4H201.966C204.566 142.2 207.866 145.1 211.866 147.1C215.966 149 220.416 149.95 225.216 149.95C230.916 149.95 235.866 148.85 240.066 146.65C244.366 144.45 247.916 141.5 250.716 137.8C253.616 134.1 255.766 129.85 257.166 125.05C258.566 120.25 259.266 115.25 259.266 110.05C259.266 104.55 258.566 99.3 257.166 94.3C255.766 89.2 253.616 84.75 250.716 80.95C247.816 77.15 244.166 74.1 239.766 71.8C235.366 69.5 230.116 68.35 224.016 68.35C219.216 68.35 214.816 69.3 210.816 71.2C206.816 73.1 203.516 76.15 200.916 80.35H200.616V70.45H180.366ZM293.965 58.45V40.9H272.665V58.45H293.965ZM272.665 70.45V148H293.965V70.45H272.665ZM337.737 70.45V47.2H316.437V70.45H303.537V84.7H316.437V130.45C316.437 134.35 317.087 137.5 318.387 139.9C319.687 142.3 321.437 144.15 323.637 145.45C325.937 146.75 328.537 147.6 331.437 148C334.437 148.5 337.587 148.75 340.887 148.75C342.987 148.75 345.137 148.7 347.337 148.6C349.537 148.5 351.537 148.3 353.337 148V131.5C352.337 131.7 351.287 131.85 350.187 131.95C349.087 132.05 347.937 132.1 346.737 132.1C343.137 132.1 340.737 131.5 339.537 130.3C338.337 129.1 337.737 126.7 337.737 123.1V84.7H353.337V70.45H337.737ZM379.971 122.8H359.721C359.921 128 361.071 132.35 363.171 135.85C365.371 139.25 368.121 142 371.421 144.1C374.821 146.2 378.671 147.7 382.971 148.6C387.271 149.5 391.671 149.95 396.171 149.95C400.571 149.95 404.871 149.5 409.071 148.6C413.371 147.8 417.171 146.35 420.471 144.25C423.771 142.15 426.421 139.4 428.421 136C430.521 132.5 431.571 128.2 431.571 123.1C431.571 119.5 430.871 116.5 429.471 114.1C428.071 111.6 426.221 109.55 423.921 107.95C421.621 106.25 418.971 104.9 415.971 103.9C413.071 102.9 410.071 102.05 406.971 101.35C403.971 100.65 401.021 100 398.121 99.4C395.221 98.8 392.621 98.15 390.321 97.45C388.121 96.65 386.321 95.65 384.921 94.45C383.521 93.25 382.821 91.7 382.821 89.8C382.821 88.2 383.221 86.95 384.021 86.05C384.821 85.05 385.771 84.3 386.871 83.8C388.071 83.3 389.371 83 390.771 82.9C392.171 82.7 393.471 82.6 394.671 82.6C398.471 82.6 401.771 83.35 404.571 84.85C407.371 86.25 408.921 89 409.221 93.1H429.471C429.071 88.3 427.821 84.35 425.721 81.25C423.721 78.05 421.171 75.5 418.071 73.6C414.971 71.7 411.421 70.35 407.421 69.55C403.521 68.75 399.471 68.35 395.271 68.35C391.071 68.35 386.971 68.75 382.971 69.55C378.971 70.25 375.371 71.55 372.171 73.45C368.971 75.25 366.371 77.75 364.371 80.95C362.471 84.15 361.521 88.25 361.521 93.25C361.521 96.65 362.221 99.55 363.621 101.95C365.021 104.25 366.871 106.2 369.171 107.8C371.471 109.3 374.071 110.55 376.971 111.55C379.971 112.45 383.021 113.25 386.121 113.95C393.721 115.55 399.621 117.15 403.821 118.75C408.121 120.35 410.271 122.75 410.271 125.95C410.271 127.85 409.821 129.45 408.921 130.75C408.021 131.95 406.871 132.95 405.471 133.75C404.171 134.45 402.671 135 400.971 135.4C399.371 135.7 397.821 135.85 396.321 135.85C394.221 135.85 392.171 135.6 390.171 135.1C388.271 134.6 386.571 133.85 385.071 132.85C383.571 131.75 382.321 130.4 381.321 128.8C380.421 127.1 379.971 125.1 379.971 122.8ZM465.938 58.45V40.9H444.638V58.45H465.938ZM444.638 70.45V148H465.938V70.45H444.638ZM518.859 129.7C515.559 129.7 512.809 129 510.609 127.6C508.409 126.2 506.609 124.4 505.209 122.2C503.909 120 502.959 117.55 502.359 114.85C501.859 112.05 501.609 109.25 501.609 106.45C501.609 103.55 501.909 100.8 502.509 98.2C503.209 95.5 504.259 93.15 505.659 91.15C507.159 89.05 508.959 87.4 511.059 86.2C513.259 85 515.859 84.4 518.859 84.4C522.359 84.4 525.259 85.05 527.559 86.35C529.859 87.65 531.709 89.4 533.109 91.6C534.509 93.8 535.509 96.35 536.109 99.25C536.709 102.05 537.009 105.05 537.009 108.25C537.009 111.05 536.609 113.75 535.809 116.35C535.109 118.85 534.009 121.1 532.509 123.1C531.009 125.1 529.109 126.7 526.809 127.9C524.509 129.1 521.859 129.7 518.859 129.7ZM557.259 143.05V70.45H537.009V80.8H536.709C534.109 76.3 530.859 73.1 526.959 71.2C523.159 69.3 518.709 68.35 513.609 68.35C508.209 68.35 503.409 69.4 499.209 71.5C495.109 73.6 491.659 76.45 488.859 80.05C486.059 83.55 483.909 87.65 482.409 92.35C481.009 96.95 480.309 101.75 480.309 106.75C480.309 112.05 480.909 117.1 482.109 121.9C483.409 126.6 485.409 130.75 488.109 134.35C490.809 137.85 494.259 140.65 498.459 142.75C502.659 144.75 507.659 145.75 513.459 145.75C518.159 145.75 522.609 144.8 526.809 142.9C531.109 140.9 534.409 137.85 536.709 133.75H537.009V143.95C537.109 149.45 535.759 154 532.959 157.6C530.259 161.2 525.909 163 519.909 163C516.109 163 512.759 162.2 509.859 160.6C506.959 159.1 505.009 156.35 504.009 152.35H482.859C483.159 156.75 484.359 160.5 486.459 163.6C488.659 166.8 491.359 169.4 494.559 171.4C497.859 173.4 501.459 174.85 505.359 175.75C509.359 176.75 513.259 177.25 517.059 177.25C525.959 177.25 533.059 176.05 538.359 173.65C543.659 171.25 547.709 168.3 550.509 164.8C553.309 161.4 555.109 157.7 555.909 153.7C556.809 149.7 557.259 146.15 557.259 143.05ZM574.409 70.45V148H595.709V107.35C595.709 99.45 597.009 93.8 599.609 90.4C602.209 86.9 606.409 85.15 612.209 85.15C617.309 85.15 620.859 86.75 622.859 89.95C624.859 93.05 625.859 97.8 625.859 104.2V148H647.159V100.3C647.159 95.5 646.709 91.15 645.809 87.25C645.009 83.25 643.559 79.9 641.459 77.2C639.359 74.4 636.459 72.25 632.759 70.75C629.159 69.15 624.509 68.35 618.809 68.35C614.309 68.35 609.909 69.4 605.609 71.5C601.309 73.5 597.809 76.75 595.109 81.25H594.659V70.45H574.409Z" fill="black"/>
<circle cx="664.5" cy="147.5" r="38.5" fill="white"/>
<circle cx="664.5" cy="147.5" r="27" fill="#2126CA" stroke="#2126CA"/>
</svg>
